<svg width="31" height="31" viewBox="0 0 31 31" fill="none" xmlns="http://www.w3.org/2000/svg">
<path d="M26.3076 14.7674L14.8703 4.84072C14.7825 4.76504 14.6705 4.72266 14.5524 4.72266H11.8732C11.6492 4.72266 11.5463 5.00117 11.7158 5.14648L22.3176 14.3496H4.60156C4.46836 14.3496 4.35938 14.4586 4.35938 14.5918V16.4082C4.35938 16.5414 4.46836 16.6504 4.60156 16.6504H22.3146L11.7128 25.8535C11.5433 26.0019 11.6462 26.2773 11.8702 26.2773H14.6402C14.6978 26.2773 14.7553 26.2562 14.7977 26.2168L26.3076 16.2326C26.4124 16.1415 26.4965 16.0289 26.554 15.9025C26.6116 15.7762 26.6414 15.6389 26.6414 15.5C26.6414 15.3611 26.6116 15.2238 26.554 15.0975C26.4965 14.9711 26.4124 14.8585 26.3076 14.7674Z" fill="black"/>
</svg>
