<svg width="31" height="31" viewBox="0 0 31 31" fill="none" xmlns="http://www.w3.org/2000/svg">
<path d="M4.69238 16.2326L16.1297 26.1593C16.2175 26.235 16.3295 26.2773 16.4476 26.2773L19.1268 26.2773C19.3508 26.2773 19.4537 25.9988 19.2842 25.8535L8.68242 16.6504L26.3984 16.6504C26.5316 16.6504 26.6406 16.5414 26.6406 16.4082L26.6406 14.5918C26.6406 14.4586 26.5316 14.3496 26.3984 14.3496L8.68545 14.3496L19.2872 5.14648C19.4567 4.99814 19.3538 4.72266 19.1298 4.72266L16.3598 4.72266C16.3022 4.72266 16.2447 4.74385 16.2023 4.7832L4.69238 14.7674C4.58758 14.8585 4.50355 14.9711 4.44597 15.0975C4.38838 15.2238 4.35858 15.3611 4.35858 15.5C4.35858 15.6389 4.38838 15.7762 4.44597 15.9025C4.50355 16.0289 4.58758 16.1415 4.69238 16.2326Z" fill="white"/>
</svg>
