<svg width="89" height="86" viewBox="0 0 89 86" fill="none" xmlns="http://www.w3.org/2000/svg">
<rect width="48" height="47" rx="5" fill="#E2A4FF"/>
<rect y="40" width="50" height="40" rx="5" fill="#B0B0B0"/>
<rect x="40" width="40" height="53" rx="5" fill="#D375FF"/>
<rect x="31" y="32" width="58" height="54" rx="27" fill="#E2A4FF"/>
<path d="M23.6572 7.06592V32H18.7354V12.7397L12.8223 14.6196V10.7402L23.1274 7.06592H23.6572Z" fill="black"/>
<path d="M67.605 54.252V58.1484H52.2754V54.252H67.605ZM67.605 61.6348V65.5312H52.2754V61.6348H67.605Z" fill="black"/>
<path d="M68.4082 17.3711V21.6777C68.4082 23.5462 68.2088 25.1584 67.8101 26.5142C67.4113 27.8586 66.8359 28.9637 66.084 29.8296C65.3434 30.6841 64.4604 31.3164 63.4351 31.7266C62.4097 32.1367 61.2703 32.3418 60.0171 32.3418C59.0145 32.3418 58.0802 32.2165 57.2144 31.9658C56.3485 31.7038 55.568 31.2993 54.873 30.7524C54.1895 30.2056 53.597 29.5163 53.0957 28.6846C52.6058 27.8415 52.2298 26.8389 51.9678 25.6768C51.7057 24.5146 51.5747 23.1816 51.5747 21.6777V17.3711C51.5747 15.5026 51.7741 13.9019 52.1729 12.5688C52.583 11.2244 53.1584 10.125 53.8989 9.27051C54.6509 8.41602 55.5396 7.78939 56.5649 7.39062C57.5903 6.98047 58.7297 6.77539 59.9829 6.77539C60.9855 6.77539 61.9141 6.90641 62.7686 7.16846C63.6344 7.41911 64.4149 7.81217 65.1099 8.34766C65.8049 8.88314 66.3973 9.57243 66.8872 10.4155C67.3771 11.2472 67.7531 12.2441 68.0151 13.4062C68.2772 14.557 68.4082 15.8786 68.4082 17.3711ZM63.4692 22.3271V16.7046C63.4692 15.8045 63.418 15.0184 63.3154 14.3462C63.2243 13.674 63.0819 13.1043 62.8882 12.6372C62.6945 12.1587 62.4552 11.7713 62.1704 11.4751C61.8856 11.1789 61.5609 10.9624 61.1963 10.8257C60.8317 10.689 60.4272 10.6206 59.9829 10.6206C59.4246 10.6206 58.929 10.7288 58.4961 10.9453C58.0745 11.1618 57.7157 11.5093 57.4194 11.9878C57.1232 12.4549 56.8953 13.0815 56.7358 13.8677C56.5877 14.6424 56.5137 15.5881 56.5137 16.7046V22.3271C56.5137 23.2272 56.5592 24.019 56.6504 24.7026C56.7529 25.3862 56.901 25.973 57.0947 26.4629C57.2998 26.9414 57.5391 27.3345 57.8125 27.6421C58.0973 27.9383 58.422 28.1548 58.7866 28.2915C59.1626 28.4282 59.5728 28.4966 60.0171 28.4966C60.564 28.4966 61.0482 28.3883 61.4697 28.1719C61.9027 27.944 62.2673 27.5908 62.5635 27.1123C62.8711 26.6224 63.099 25.9844 63.2471 25.1982C63.3952 24.4121 63.4692 23.4551 63.4692 22.3271Z" fill="black"/>
<path d="M16.9751 52.5088L20.0342 58.1313L23.1787 52.5088H28.4253L23.1958 61.5493L28.6646 71H23.4009L20.0684 65.0527L16.7358 71H11.4722L16.9409 61.5493L11.7114 52.5088H16.9751Z" fill="black"/>
</svg>
